<?xml version="1.0" standalone="no"?>
<!DOCTYPE svg PUBLIC "-//W3C//DTD SVG 20010904//EN"
 "http://www.w3.org/TR/2001/REC-SVG-20010904/DTD/svg10.dtd">
<svg version="1.0" xmlns="http://www.w3.org/2000/svg"
 width="1024.000000pt" height="1024.000000pt" viewBox="0 0 1024.000000 1024.000000"
 preserveAspectRatio="xMidYMid meet">
<metadata>
Created by potrace 1.14, written by Peter Selinger 2001-2017
</metadata>
<g transform="translate(0.000000,1024.000000) scale(0.100000,-0.100000)"
fill="#000000" stroke="none">
<path d="M5052 8398 c4 -168 2 -217 -6 -205 -7 8 -50 88 -96 176 -46 89 -86
161 -89 161 -4 0 -41 -62 -82 -137 -42 -76 -113 -204 -158 -285 l-81 -146 0
-536 0 -536 -105 0 -105 0 0 821 c0 777 -1 821 -17 816 -10 -2 -55 -15 -100
-28 l-83 -24 0 -337 0 -338 -320 0 -320 0 0 -455 0 -455 -88 0 -89 0 29 58
c15 31 32 81 38 111 12 65 13 161 2 161 -18 0 -119 -33 -153 -50 -39 -20 -86
-62 -111 -99 l-17 -24 -60 56 c-54 49 -140 95 -184 98 -7 0 -38 30 -70 67 -32
37 -93 105 -137 152 l-78 85 -71 -70 c-39 -38 -71 -72 -71 -76 0 -3 34 -42 76
-87 l76 -82 -109 -1 c-184 -1 -175 4 -275 -133 -72 -100 -178 -278 -178 -300
0 -3 8 -6 18 -6 11 0 33 20 52 46 65 91 231 191 363 218 155 32 303 16 440
-47 96 -45 165 -102 231 -190 70 -92 102 -165 121 -274 28 -162 12 -273 -61
-421 -77 -156 -212 -274 -378 -329 -69 -22 -98 -26 -201 -26 -103 0 -131 4
-200 26 -44 15 -106 42 -137 62 -32 19 -58 31 -58 27 0 -12 44 -119 81 -197
40 -84 112 -210 189 -325 130 -197 199 -324 224 -411 20 -67 30 -193 16 -184
-6 3 -10 12 -10 19 0 19 -68 119 -149 221 -40 50 -95 125 -123 168 -28 42 -53
75 -56 73 -2 -3 15 -60 38 -126 67 -194 59 -283 -32 -371 -68 -66 -182 -87
-263 -50 -22 10 -59 38 -82 63 -76 84 -81 158 -22 348 23 72 39 134 36 136
-10 10 -177 -276 -198 -338 -30 -89 -24 -212 14 -290 35 -72 98 -142 157 -176
26 -15 80 -58 119 -95 l71 -67 -54 0 c-63 0 -157 27 -218 63 -65 38 -155 138
-189 210 -32 69 -59 179 -59 242 0 69 29 177 68 260 22 44 91 159 154 255 63
96 131 204 151 240 38 70 77 176 77 211 0 21 -1 21 -44 -5 -25 -14 -46 -26
-49 -26 -2 0 -9 24 -16 54 -24 107 -105 176 -205 176 -26 0 -63 -7 -82 -16
-47 -22 -100 -87 -119 -144 -30 -89 -65 -376 -72 -580 -13 -422 36 -650 180
-839 205 -267 624 -293 879 -53 39 37 84 87 99 112 l29 45 0 -217 0 -218 -515
0 c-283 0 -515 -3 -514 -7 0 -5 15 -48 32 -98 l32 -90 718 -3 718 -2 -3 -88
-3 -87 -682 -3 c-376 -1 -683 -4 -683 -7 0 -2 14 -34 32 -70 l32 -65 271 0
270 -1 -50 -45 c-71 -63 -174 -112 -275 -130 -47 -8 -93 -13 -102 -10 -10 2
-18 2 -18 0 0 -21 98 -183 174 -288 l50 -69 322 6 c297 6 326 8 363 26 95 49
127 158 71 249 -36 58 -72 72 -187 72 -60 0 -104 4 -108 10 -4 6 -4 49 0 96
l8 86 111 -4 c94 -3 120 -8 168 -30 76 -35 151 -107 185 -177 24 -49 28 -68
28 -146 0 -82 -3 -97 -33 -157 -52 -107 -151 -176 -279 -197 -35 -5 -157 -7
-288 -4 -170 5 -227 3 -224 -5 2 -7 33 -48 69 -92 l65 -80 611 0 611 0 99 -44
c54 -24 130 -58 167 -76 l68 -32 -3 -65 -3 -64 -165 -74 -165 -74 -382 -1
c-249 0 -383 -4 -383 -10 0 -5 4 -10 8 -10 5 0 32 -17 60 -38 29 -20 72 -50
97 -65 25 -16 43 -32 40 -37 -3 -4 4 -6 15 -3 11 3 20 0 20 -6 0 -6 3 -10 8
-9 4 1 17 -4 30 -11 20 -11 21 -15 10 -29 -11 -15 -11 -15 3 -5 24 19 71 -5
63 -32 -4 -15 -3 -16 4 -6 10 14 52 7 52 -10 0 -6 -4 -8 -9 -4 -5 3 -12 2 -15
-3 -7 -12 26 -11 42 1 8 6 12 6 12 -2 0 -6 7 -11 15 -11 9 0 18 -7 21 -15 4
-8 10 -12 15 -10 9 6 110 -42 120 -57 3 -5 9 -9 13 -9 19 3 27 0 22 -8 -4 -5
2 -7 12 -4 10 2 34 -7 54 -21 20 -13 38 -22 41 -20 7 7 67 -17 67 -28 0 -5 -6
-6 -12 -2 -7 4 -9 3 -5 -1 11 -12 37 -15 37 -4 0 8 86 -20 122 -41 10 -6 24
-10 33 -10 8 0 18 -12 21 -26 5 -19 9 -22 15 -13 5 8 3 17 -4 22 -7 6 -4 6 8
2 11 -4 26 -8 32 -8 9 0 10 -4 2 -14 -6 -7 -16 -10 -22 -6 -6 3 -7 1 -3 -6 4
-6 12 -8 18 -5 6 4 15 0 20 -7 8 -11 9 -10 4 3 -3 10 -1 20 4 23 6 4 10 1 10
-5 0 -7 6 -10 14 -7 8 3 22 -1 33 -8 10 -9 13 -14 6 -15 -7 0 -13 -5 -13 -10
0 -7 6 -7 18 -1 13 7 23 6 32 -2 10 -10 12 -9 7 5 -5 14 -2 16 16 8 12 -4 21
-14 19 -21 -2 -9 2 -9 14 2 10 8 15 10 12 4 -3 -5 1 -17 10 -25 14 -13 15 -12
9 3 -3 9 -2 17 2 17 5 0 12 -7 15 -16 5 -14 9 -14 23 -3 15 12 16 12 11 -3 -5
-12 -1 -16 16 -14 13 2 28 6 34 10 5 3 13 0 15 -6 4 -10 6 -10 6 -1 1 7 8 10
17 6 13 -5 13 -7 2 -14 -10 -7 -11 -9 0 -9 7 0 10 -4 7 -10 -8 -13 27 0 38 14
6 8 10 8 13 0 3 -6 16 -9 29 -6 14 2 25 0 25 -4 0 -5 21 -10 48 -11 71 -3 72
-4 66 -32 -4 -22 -3 -23 6 -9 6 9 17 15 25 12 8 -4 15 -2 15 4 0 5 11 9 24 8
13 0 22 -4 19 -8 -2 -5 1 -8 7 -8 6 0 9 -4 5 -9 -3 -5 -1 -12 4 -16 6 -3 8 3
6 12 -2 16 4 18 41 18 24 0 44 -2 44 -5 0 -3 28 -6 62 -7 34 -2 66 -7 71 -12
7 -7 17 -6 29 0 18 10 19 8 13 -13 -5 -20 -4 -21 5 -5 6 9 15 15 20 12 5 -3
12 0 16 6 4 8 9 7 16 -2 7 -11 11 -11 15 -1 7 18 26 15 46 -8 9 -11 22 -20 29
-20 6 0 3 7 -8 16 -10 8 -13 13 -6 9 6 -3 12 -3 12 2 0 4 11 8 25 8 18 0 25
-5 25 -20 0 -15 2 -17 9 -6 5 7 14 10 20 7 6 -4 10 -2 9 4 -2 7 14 13 40 15
23 2 42 -1 42 -6 0 -4 -7 -5 -17 -2 -11 4 -14 3 -9 -6 5 -7 14 -10 22 -7 7 3
21 -5 31 -17 10 -13 27 -26 38 -31 11 -4 16 -4 12 0 -4 4 -2 13 4 21 8 8 8 13
1 13 -6 0 -12 -5 -14 -11 -2 -7 -15 -2 -33 13 -21 19 -25 27 -15 33 8 5 11 4
7 -2 -9 -14 13 -22 44 -16 16 3 32 -3 48 -19 20 -18 24 -19 18 -4 -6 14 -4 17
9 12 8 -3 17 -6 20 -6 2 0 1 -6 -2 -14 -3 -8 3 -19 15 -26 14 -7 21 -7 21 0 0
5 -7 10 -16 10 -13 0 -14 3 -5 14 10 11 8 16 -8 21 -14 4 -18 11 -14 23 6 16
5 16 -14 -1 -24 -21 -34 -22 -27 -2 4 8 10 12 15 9 5 -3 9 -1 9 4 0 4 29 8 65
8 47 1 65 -3 65 -13 0 -7 8 -13 19 -13 10 0 24 -6 31 -14 6 -8 17 -13 25 -10
16 6 13 36 -3 42 -7 2 -12 8 -12 13 0 6 4 8 9 5 5 -4 11 0 14 6 3 8 9 1 16
-14 11 -28 25 -36 36 -19 3 5 0 13 -6 17 -8 4 -9 3 -5 -4 4 -7 2 -12 -3 -12
-16 0 -13 27 4 34 8 3 19 -2 24 -12 9 -15 10 -14 11 6 0 13 4 20 10 17 6 -4 7
-12 3 -18 -4 -7 0 -6 10 2 9 7 24 10 33 7 12 -4 15 -2 10 9 -3 8 -1 15 4 15
14 0 13 -37 -1 -46 -6 -3 -15 -1 -19 6 -5 8 -19 0 -46 -25 l-39 -37 39 25 c37
24 40 25 53 9 8 -9 12 -12 9 -6 -3 7 1 17 9 24 8 7 15 18 15 25 0 8 11 12 31
11 16 -1 33 2 36 7 3 6 1 7 -5 3 -6 -3 -13 -3 -16 2 -2 4 9 9 25 10 16 1 29
-2 29 -8 0 -5 5 -10 11 -10 6 0 9 6 6 13 -3 8 3 14 14 14 10 1 19 -5 19 -13 0
-10 9 -13 35 -9 26 3 34 1 28 -8 -4 -7 2 -6 13 3 10 8 21 15 23 17 1 1 -10 1
-25 1 -52 -1 -65 2 -58 13 3 6 17 8 29 5 13 -3 25 -2 27 3 2 5 9 11 17 13 18
4 25 -40 9 -61 -11 -14 -11 -14 3 -4 9 7 19 9 23 5 4 -4 7 -2 6 3 -5 23 1 27
18 12 15 -14 19 -15 19 -2 0 8 -4 12 -9 9 -4 -3 -8 0 -8 6 0 7 -7 10 -15 6
-22 -8 -18 8 8 32 27 26 37 28 37 7 0 -8 5 -15 10 -15 6 0 10 7 8 16 -2 10 2
19 8 21 7 2 11 -6 10 -22 0 -14 -6 -25 -12 -25 -7 0 -14 -9 -17 -19 -3 -14 -1
-18 9 -14 8 3 11 9 8 14 -3 5 -1 9 5 9 5 0 15 -8 21 -17 8 -15 9 -14 6 9 -6
36 5 43 25 17 16 -22 39 -19 39 4 0 8 -3 8 -9 -2 -7 -10 -10 -10 -16 -1 -10
16 13 30 45 29 23 0 24 -1 5 -10 -19 -9 -18 -9 3 -5 14 3 22 -1 22 -9 0 -8 4
-16 9 -19 8 -5 8 15 1 34 -1 3 -2 8 -1 13 0 4 -5 6 -11 5 -8 -2 -12 5 -10 17
3 19 3 20 -11 1 -10 -14 -21 -17 -41 -12 -16 4 -24 11 -20 17 4 8 9 7 15 -2 8
-12 11 -11 19 1 9 13 10 13 10 0 1 -9 6 -6 14 9 11 19 14 21 19 7 4 -9 12 -16
18 -16 8 0 7 5 -2 18 -7 9 -9 14 -4 9 4 -4 17 0 26 9 17 16 19 15 29 -10 13
-36 13 -41 -4 -26 -8 6 -12 19 -9 27 4 11 2 14 -5 9 -7 -4 -12 -12 -12 -17 0
-15 30 -43 37 -35 3 3 12 1 19 -5 7 -5 25 -12 40 -15 l28 -5 -26 21 c-25 19
-30 58 -5 43 6 -4 7 -1 2 7 -6 10 -4 12 8 7 24 -9 30 9 10 29 -16 16 -16 17
-1 12 9 -4 18 -1 21 6 4 9 17 12 37 10 21 -3 29 0 24 8 -4 7 -3 8 4 4 7 -4 12
-9 12 -12 0 -6 -53 -28 -62 -26 -12 3 -10 -16 2 -23 14 -9 1 -27 -13 -19 -7 4
-8 3 -4 -2 5 -5 12 -9 15 -9 4 0 14 -4 22 -10 13 -8 13 -7 1 8 -17 21 -4 22
19 2 14 -13 17 -13 17 0 0 8 -5 11 -10 8 -7 -4 -8 1 -3 13 4 10 9 24 10 30 1
7 7 19 14 27 10 12 10 16 0 20 -9 4 -8 6 3 6 9 1 22 8 29 16 9 11 17 12 31 4
14 -7 19 -7 17 2 -2 6 7 15 19 20 16 6 22 5 20 -4 -1 -7 4 -11 12 -9 8 2 18
-3 22 -10 12 -18 11 -28 -1 -28 -5 0 -10 8 -10 17 0 15 -2 14 -14 -3 -8 -10
-18 -15 -22 -11 -5 4 -3 12 5 16 10 6 9 10 -4 15 -23 9 -24 8 -17 -16 4 -18 2
-20 -14 -14 -10 4 -15 4 -11 0 4 -4 0 -15 -9 -25 -9 -10 -14 -24 -11 -31 4 -9
6 -7 6 4 1 9 10 20 21 23 11 3 20 10 20 14 0 13 72 4 82 -11 5 -8 6 -2 2 17
-6 29 -6 29 10 10 17 -20 17 -20 7 1 -6 12 -7 25 -3 30 4 5 -1 2 -10 -5 -14
-10 -18 -10 -18 -1 0 6 9 14 19 17 13 3 18 11 14 21 -4 14 -1 13 11 -2 13 -16
18 -17 31 -6 8 7 15 19 15 26 0 8 4 14 9 14 14 0 21 -28 9 -32 -13 -5 -19 -48
-6 -48 4 0 8 7 8 16 0 8 3 13 8 11 4 -3 15 5 24 17 16 22 15 23 -13 40 -17 10
-26 22 -22 29 5 8 8 8 11 -1 5 -17 22 -15 22 2 0 8 5 18 12 22 8 5 9 2 4 -12
-11 -29 -11 -29 -6 -30 3 0 16 -6 30 -13 l25 -12 -22 17 c-27 19 -29 30 -7 38
12 5 15 2 10 -11 -4 -10 -4 -14 0 -11 3 4 19 1 35 -8 31 -16 40 -30 12 -20
-10 4 -14 4 -10 0 4 -4 0 -12 -8 -18 -14 -10 -14 -13 0 -31 16 -19 16 -19 5 3
-10 20 2 34 13 15 2 -5 2 -2 0 6 -2 8 2 11 12 7 9 -3 13 -2 10 4 -3 5 3 14 14
19 15 8 20 7 25 -6 4 -9 9 -13 13 -10 3 4 0 13 -7 22 -8 10 -17 12 -30 5 -19
-10 -40 5 -40 29 1 13 3 13 14 -2 11 -15 15 -15 19 -3 3 8 1 16 -6 19 -8 2 -7
6 2 11 8 5 14 1 18 -13 3 -12 9 -21 14 -21 12 0 11 17 -1 25 -11 7 -2 35 11
35 5 0 8 -5 7 -11 -2 -6 8 -17 22 -26 20 -12 21 -12 8 0 -19 15 -25 32 -8 22
6 -3 10 -1 10 4 0 6 -6 11 -14 11 -12 0 -14 13 -6 40 1 3 5 -4 9 -14 4 -12 19
-21 37 -23 l29 -3 -30 14 c-19 9 -24 15 -13 15 12 1 16 7 12 18 -5 15 -4 15 4
3 6 -8 8 -18 5 -24 -4 -5 -1 -6 7 -1 7 4 27 9 45 10 27 1 31 -1 27 -17 -3 -13
1 -18 14 -18 15 0 16 2 5 9 -7 5 -11 13 -7 19 3 6 -1 15 -10 20 -10 5 -12 12
-6 16 5 3 15 -1 22 -9 7 -8 18 -15 24 -15 6 0 3 5 -6 11 -10 5 -18 14 -18 19
0 15 28 12 33 -2 4 -10 6 -10 6 -1 1 7 -14 19 -33 27 -18 8 -37 20 -41 27 -6
11 -5 12 6 2 7 -7 20 -13 29 -13 12 1 12 2 -2 11 -24 14 -22 26 5 34 12 4 33
17 46 29 13 11 21 16 18 10 -9 -15 15 -24 43 -17 13 4 19 11 16 20 -3 8 -6 17
-6 19 0 3 -6 2 -12 -2 -10 -6 -9 -3 0 8 8 10 20 14 29 11 12 -5 15 -2 10 10
-3 9 -2 17 3 17 6 0 10 -7 10 -15 0 -8 0 -18 0 -22 0 -5 -4 -8 -10 -8 -14 0
-14 -19 -1 -23 6 -2 14 3 17 12 3 9 9 14 13 12 4 -3 8 5 8 17 2 18 0 19 -8 7
-9 -12 -10 -12 -5 3 3 10 0 20 -7 22 -9 4 -11 47 -9 173 5 231 -12 300 -101
432 -54 79 -152 191 -164 188 -21 -5 -160 -187 -196 -257 -19 -36 -40 -90 -46
-119 -7 -33 -11 -181 -11 -385 0 -183 -4 -338 -9 -345 -4 -7 -14 -15 -22 -16
-30 -6 -49 -19 -42 -29 4 -6 0 -8 -10 -4 -8 3 -21 -1 -27 -9 -7 -8 -16 -14
-21 -14 -5 0 -9 287 -9 658 l0 658 92 100 c51 54 117 125 148 157 l55 57 319
-320 318 -321 -3 -204 c-2 -113 -1 -205 4 -205 4 0 10 0 13 0 4 0 0 8 -7 17
-12 15 -12 16 4 10 10 -4 21 -7 23 -7 3 0 3 -4 -1 -9 -3 -5 -1 -12 5 -16 5 -3
10 -1 10 5 0 6 4 9 10 5 5 -3 2 -14 -8 -25 -17 -20 -33 -27 -31 -12 4 22 -3
24 -17 3 -13 -17 -14 -25 -5 -34 9 -9 11 -8 6 6 -4 10 -2 17 4 17 6 0 11 -5
11 -10 0 -7 6 -7 19 -1 10 6 22 7 26 3 3 -4 6 -2 5 3 -5 21 0 36 10 30 17 -10
11 5 -10 27 -24 26 -26 63 -5 84 15 16 20 8 15 -25 -1 -9 4 -12 15 -7 9 3 13
2 10 -4 -4 -6 1 -17 9 -26 9 -8 16 -11 16 -5 0 5 -4 12 -10 16 -5 3 -6 13 -3
22 5 12 2 15 -9 11 -9 -4 -15 0 -15 8 0 8 5 13 11 10 51 -20 51 -21 36 -4 -8
9 -18 14 -22 12 -4 -2 -9 0 -13 6 -9 14 28 13 42 -1 9 -9 11 0 10 35 -2 41 2
51 30 78 20 19 38 28 47 25 23 -9 20 -27 -4 -22 -13 3 -18 0 -14 -7 5 -7 2 -9
-8 -5 -23 8 -29 -2 -16 -27 10 -20 10 -20 -7 -6 -16 13 -18 13 -13 0 2 -8 13
-17 22 -18 14 -3 17 1 11 19 -6 18 -4 21 9 16 10 -4 15 -3 11 3 -3 6 -1 10 4
10 6 0 11 -4 11 -9 0 -5 7 -12 16 -15 15 -6 15 -4 3 10 -11 13 -10 17 4 25 9
6 17 18 16 27 0 15 -1 15 -8 -1 -6 -18 -7 -18 -23 0 -16 17 -14 21 28 72 l44
53 -179 187 c-99 102 -198 204 -221 226 -23 22 -109 111 -192 198 l-150 157
105 0 105 0 33 -58 c72 -128 207 -234 354 -278 95 -28 241 -25 333 8 86 31
194 99 224 140 16 23 23 27 29 16 6 -9 8 -5 7 12 -2 15 2 24 9 23 7 -2 10 4 6
13 -4 11 2 10 30 -6 28 -17 36 -18 40 -6 4 9 0 12 -12 9 -21 -5 -61 29 -42 35
7 2 19 -4 26 -14 9 -12 14 -14 15 -6 0 7 5 10 12 6 7 -4 8 -3 4 5 -4 6 -11 9
-16 6 -5 -3 -14 3 -19 14 -8 15 -7 23 4 34 8 8 12 17 9 20 -9 9 19 57 35 57
11 0 10 -3 -5 -15 -21 -16 -8 -20 16 -5 13 9 12 12 -4 25 -19 14 -18 15 15 15
28 1 31 2 16 11 -9 5 -22 7 -27 4 -12 -7 -14 8 -2 19 4 4 7 12 7 18 0 6 8 12
18 14 11 1 22 6 25 9 4 4 -2 5 -12 3 -10 -1 -21 3 -24 11 -3 9 0 11 8 6 8 -5
11 -4 7 2 -8 13 37 123 54 134 12 7 11 11 -1 19 -11 7 -12 10 -2 10 9 0 11 7
7 21 -5 14 -4 19 4 15 7 -5 9 -1 5 8 -4 11 0 16 12 16 13 0 15 3 7 11 -7 7 -7
23 0 50 8 31 13 38 27 34 26 -8 32 8 14 43 -8 17 -13 43 -10 59 2 15 5 34 5
41 2 20 18 14 24 -10 4 -12 9 -19 13 -15 4 3 0 17 -9 31 -14 21 -15 32 -4 83
6 32 15 61 20 64 5 3 8 9 7 13 -4 17 13 66 23 66 7 0 6 4 -3 10 -8 5 -10 10
-3 10 6 0 9 9 5 22 -3 11 -1 19 4 16 5 -4 7 16 5 44 -2 28 1 48 5 45 5 -3 9 9
10 26 1 30 5 70 20 212 3 33 14 69 23 80 15 19 15 19 -3 5 -18 -14 -19 -13
-13 10 4 14 7 29 7 33 0 5 6 5 13 1 9 -6 9 -4 0 7 -7 7 -13 38 -13 70 0 37 5
59 13 62 9 4 9 6 0 6 -21 2 -17 101 5 117 13 11 13 13 1 9 -13 -5 -15 6 -16
75 0 44 -3 83 -7 87 -3 3 -1 12 5 20 7 8 7 13 2 13 -6 0 -11 25 -12 57 0 31
-3 59 -6 61 -3 3 0 11 6 19 8 9 8 13 1 13 -6 0 -10 13 -10 29 1 15 -2 33 -6
40 -4 6 -1 11 6 11 10 0 10 2 0 8 -6 5 -14 35 -17 68 -2 32 -5 61 -6 64 -1 3
-3 10 -4 15 -1 6 -5 18 -10 28 -4 9 -4 24 -1 33 3 8 2 13 -2 10 -6 -4 -26 66
-33 116 -6 44 -114 359 -164 478 -36 86 -142 297 -204 407 -54 96 -150 229
-166 231 -10 1 -217 -199 -597 -576 l-197 -196 -26 24 c-14 13 -25 29 -25 36
0 7 178 187 395 400 217 214 395 393 395 397 0 13 -95 133 -143 182 l-40 40
32 -38 32 -38 -40 -47 c-21 -26 -158 -164 -303 -308 -223 -222 -271 -264 -313
-279 -27 -11 -52 -21 -55 -24 -3 -4 -12 -7 -20 -7 -8 -1 -28 -5 -45 -9 -16 -4
-95 -9 -175 -12 -180 -5 -212 -16 -236 -80 -16 -42 -16 -47 -1 -71 15 -26 19
-27 111 -27 53 0 96 0 97 0 0 0 3 -71 6 -157 3 -91 2 -158 -4 -158 -4 0 -38
34 -73 76 -36 42 -127 136 -202 210 -95 92 -138 141 -138 156 0 36 -50 188
-82 253 -34 67 -97 152 -152 204 -20 19 -36 37 -36 40 0 4 35 5 79 3 95 -4
142 13 171 60 24 39 25 66 6 113 -28 67 -57 75 -268 75 -104 0 -188 3 -188 6
0 3 56 62 124 132 68 70 135 139 148 155 14 15 29 27 33 27 5 0 39 -34 77 -75
52 -55 78 -76 103 -81 77 -14 155 44 155 115 0 44 -16 68 -103 157 l-59 61
181 184 180 184 -24 20 c-14 11 -54 36 -90 55 l-65 35 -302 -310 c-166 -171
-363 -372 -438 -448 l-136 -139 -37 16 c-41 17 -76 77 -77 129 0 24 -3 27 -24
21 -14 -3 -39 1 -60 11 -39 19 -116 97 -116 118 0 7 174 187 387 399 213 213
385 390 381 393 -15 15 -177 68 -319 105 -323 83 -525 110 -818 110 l-174 0 5
-222z m493 -3 c24 -66 91 -131 150 -147 25 -7 45 -15 45 -18 0 -3 -20 -11 -44
-18 -79 -24 -147 -100 -166 -187 -6 -29 -7 -29 -24 23 -10 30 -32 70 -50 89
-31 37 -115 82 -151 83 -11 1 3 10 30 20 28 11 67 34 89 52 38 31 86 115 86
153 0 28 14 8 35 -50z m-592 -444 l97 -1 0 -530 0 -530 -160 0 -160 0 0 528
c0 291 2 531 4 533 3 2 31 3 63 3 32 -1 102 -2 156 -3z m410 -112 c90 -46 67
-169 -31 -169 -75 0 -112 63 -77 130 24 47 64 61 108 39z m-1470 -156 l157 -6
0 -164 0 -163 -220 0 -220 0 0 170 0 170 63 0 c34 0 133 -3 220 -7z m1580
-280 c-82 -229 -125 -364 -119 -370 3 -3 94 26 203 64 256 91 303 106 310 100
3 -3 -8 -29 -24 -58 -24 -44 -36 -55 -78 -71 -77 -29 -553 -188 -563 -188 -5
0 24 98 65 218 41 119 87 254 101 300 l27 83 55 24 c30 12 58 23 62 24 4 0
-13 -56 -39 -126z m-1415 -350 l4 -163 -225 0 -225 0 -4 158 c-2 86 -3 160 0
165 2 4 103 6 224 5 l221 -3 5 -162z m2073 -82 c51 -51 32 -129 -36 -151 -43
-14 -87 6 -110 50 -20 38 -11 73 27 105 40 34 82 33 119 -4z m-2622 -328 c28
-62 176 -469 222 -610 61 -189 76 -298 59 -433 -32 -263 -24 -357 40 -485 50
-101 102 -162 188 -218 106 -70 176 -91 307 -91 96 0 119 4 180 27 175 68 311
218 353 387 20 84 22 128 8 210 -44 248 -215 411 -501 475 -61 13 -130 31
-155 40 -115 40 -242 135 -315 234 -54 74 -147 271 -200 424 l-24 68 932 -4
c894 -4 937 -5 1042 -25 139 -27 328 -89 459 -152 344 -165 659 -457 830 -770
87 -160 182 -465 212 -685 23 -162 23 -443 1 -596 -82 -563 -382 -1045 -844
-1358 -133 -90 -375 -195 -555 -241 -165 -43 -330 -49 -1020 -42 l-536 5 36
59 c151 243 345 388 606 454 43 11 147 18 361 24 333 9 389 18 584 96 429 171
757 594 832 1069 17 107 17 413 1 490 -22 100 -62 215 -109 309 -25 49 -41 92
-36 96 4 4 31 15 58 25 34 12 70 38 112 80 50 50 65 72 78 120 42 142 -24 291
-160 363 -43 23 -62 27 -135 27 -113 0 -171 -26 -244 -106 -29 -33 -56 -59
-59 -59 -3 0 -41 25 -84 56 -98 70 -209 127 -324 164 -160 53 -222 59 -621 62
-203 2 -368 1 -368 -2 0 -3 28 -21 62 -40 185 -106 330 -292 388 -500 27 -97
37 -265 21 -365 -40 -246 -184 -473 -382 -601 -155 -100 -285 -137 -489 -136
-131 0 -198 12 -337 57 l-23 7 0 -571 c0 -395 3 -571 11 -571 5 0 8 4 5 9 -8
13 40 173 71 240 56 119 178 293 200 286 7 -2 10 1 8 8 -5 13 71 83 151 139
92 65 186 109 348 164 165 56 205 71 267 104 20 11 39 17 43 15 3 -3 4 -2 2 1
-3 4 18 22 47 41 72 49 178 155 223 224 21 31 43 55 49 52 5 -4 7 -3 3 2 -4 4
1 24 12 44 143 265 129 611 -33 845 l-20 28 21 -6 c27 -9 168 -103 211 -141
153 -137 236 -260 283 -422 20 -66 23 -101 22 -228 0 -134 -3 -160 -28 -240
-85 -281 -299 -503 -572 -594 -50 -17 -153 -39 -234 -51 -251 -36 -395 -85
-542 -183 -118 -78 -223 -171 -323 -284 -47 -54 -116 -125 -153 -158 -123
-108 -547 -480 -565 -494 -16 -13 -17 93 -17 1923 l0 1936 23 0 c16 0 28 -9
36 -27z m4745 -207 c159 -93 182 -312 45 -430 -111 -94 -274 -85 -371 22 -124
138 -69 362 107 427 61 23 163 14 219 -19z m-1048 -522 c-2 -6 -25 -15 -51
-18 -37 -6 -51 -4 -66 10 -10 9 -19 23 -19 30 0 7 29 72 65 145 36 72 66 139
67 148 1 9 4 -56 5 -144 2 -87 2 -164 -1 -171z m418 74 c-10 -96 -33 -172 -85
-278 -45 -91 -63 -117 -140 -192 -48 -49 -93 -88 -98 -88 -6 0 -15 19 -22 43
-21 80 -72 202 -117 280 -24 43 -41 81 -37 85 4 4 55 17 113 28 140 28 201 52
298 118 43 29 82 54 86 55 4 0 5 -23 2 -51z m877 -155 c60 -31 114 -99 125
-159 23 -125 -70 -253 -197 -270 -174 -24 -319 171 -241 322 63 123 194 167
313 107z m-616 -30 c53 -72 111 -200 129 -280 12 -52 16 -126 16 -268 l0 -196
-97 3 -98 3 -2 393 c0 225 3 392 8 392 5 0 25 -21 44 -47z m-1407 11 c62 -43
65 -122 6 -173 -41 -36 -84 -40 -130 -12 -95 58 -48 201 66 201 20 0 46 -7 58
-16z m-4608 -14 c19 0 50 -45 50 -72 0 -39 -40 -78 -80 -78 -36 0 -80 38 -80
69 0 51 49 98 88 85 8 -2 18 -4 22 -4z m1279 -225 c40 -93 78 -185 86 -203 8
-18 15 -35 15 -37 0 -3 -81 -5 -181 -5 -141 0 -180 3 -176 13 74 171 181 407
183 405 1 -2 34 -79 73 -173z m1122 92 c40 -27 66 -89 55 -132 -4 -16 -24 -46
-45 -67 -32 -31 -46 -38 -77 -38 -52 0 -103 29 -126 71 -22 41 -22 57 -2 108
31 77 125 105 195 58z m-1572 -112 c51 -26 56 -82 11 -127 -26 -25 -36 -29
-63 -24 -39 7 -77 48 -77 82 0 31 50 84 80 84 11 0 34 -7 49 -15z m-941 -87
c7 -7 12 -27 12 -45 0 -25 -6 -36 -24 -44 -49 -23 -92 30 -62 76 18 27 54 33
74 13z m5821 -199 l31 -11 0 -147 0 -148 -25 -11 c-73 -33 -164 -4 -213 68
-20 30 -23 44 -20 99 4 62 6 66 51 107 26 23 57 45 70 47 42 8 74 7 106 -4z
m-4509 -96 c0 -21 0 -207 -1 -413 0 -206 0 -388 0 -404 1 -17 -1 -27 -5 -24
-3 4 -12 1 -19 -5 -10 -9 -8 -15 8 -29 23 -20 16 -38 -7 -19 -18 15 -40 5 -32
-15 3 -8 0 -14 -5 -14 -6 0 -9 -9 -6 -19 3 -13 0 -18 -8 -15 -7 3 -16 1 -19
-4 -3 -5 7 -12 22 -15 33 -7 57 -48 39 -66 -9 -9 -8 -14 3 -21 8 -5 10 -10 4
-10 -5 0 -16 6 -23 13 -11 10 -12 8 -6 -13 7 -23 7 -23 -9 -7 -10 9 -22 14
-28 11 -6 -4 -8 -2 -4 4 3 5 2 12 -3 14 -11 3 -24 1071 -14 1082 3 3 30 6 60
6 l53 0 0 -37z m5437 -1 c23 -16 33 -33 38 -62 7 -43 -1 -100 -15 -100 -4 0
-6 -9 -3 -20 3 -11 0 -20 -6 -20 -6 0 -11 -7 -11 -15 0 -22 -59 -84 -99 -104
-20 -11 -59 -26 -86 -34 -59 -17 -73 -10 -115 58 -42 69 -27 189 33 254 12 13
45 35 72 48 64 30 145 28 192 -5z m-479 -354 l-3 -93 -92 -3 -93 -3 0 96 0 95
95 0 96 0 -3 -92z m-416 -333 l-3 -315 -44 -42 c-93 -85 -174 -255 -190 -395
l-7 -63 -129 0 c-71 0 -129 2 -129 5 0 3 16 32 37 63 74 116 175 398 202 567
13 83 31 320 31 423 l0 72 118 0 117 0 -3 -315z m215 -132 c-10 -9 -187 70
-187 83 0 8 1 14 3 14 1 0 43 18 92 39 l90 39 3 -85 c2 -47 1 -87 -1 -90z
m788 152 c29 -28 31 -43 11 -71 -14 -18 -30 -19 -280 -22 l-266 -3 0 61 0 60
255 0 256 0 24 -25z m-5569 -252 c-7 -7 -26 7 -26 19 0 6 6 6 15 -2 9 -7 13
-15 11 -17z m20 -39 c-6 -16 -46 -20 -46 -4 0 5 6 7 14 4 8 -3 17 -1 21 5 3 6
-1 11 -11 11 -16 0 -16 1 2 14 17 13 19 13 22 0 2 -8 1 -22 -2 -30z m-1 -34
c3 -5 1 -10 -4 -10 -6 0 -11 5 -11 10 0 6 2 10 4 10 3 0 8 -4 11 -10z m4947
-101 c69 -15 136 -49 183 -93 35 -34 37 -38 32 -83 -15 -132 -107 -286 -224
-375 -75 -56 -151 -86 -242 -94 l-69 -7 -36 49 c-52 72 -77 148 -77 232 0 186
123 336 305 372 59 11 69 11 128 -1z m-4979 -59 c-2 -2 -8 2 -13 10 -7 10 -10
11 -10 3 0 -8 -12 -12 -27 -12 -23 1 -24 2 -6 6 12 2 25 13 29 25 6 20 6 20
18 -3 7 -13 11 -26 9 -29z m5621 -51 c-6 -11 -24 -2 -24 11 0 5 7 7 15 4 8 -4
12 -10 9 -15z m-2154 -1268 l0 -119 -54 -30 c-29 -17 -72 -52 -95 -79 l-41
-48 0 30 c0 52 29 153 60 216 30 59 103 149 121 149 5 0 9 -54 9 -119z m-375
53 c42 -20 69 -73 61 -119 -10 -49 -56 -85 -111 -85 -116 0 -149 151 -45 202
43 22 53 22 95 2z m-1433 -171 c13 -11 18 -30 18 -65 l0 -49 -30 16 c-56 29
-134 9 -166 -42 -35 -56 -76 -69 -108 -34 -40 44 40 150 141 187 46 17 119 11
145 -13z m973 -55 l70 -21 -75 -12 c-42 -7 -96 -22 -120 -33 -68 -31 -183
-116 -217 -159 -41 -54 -84 -146 -88 -188 -1 -11 -5 -28 -9 -37 -14 -38 -14
-46 -3 -57 8 -8 8 -11 -1 -11 -16 0 -15 -42 1 -59 10 -11 9 -12 -1 -6 -30 17
8 -115 55 -188 15 -23 28 -46 29 -52 3 -15 61 -134 90 -182 13 -24 20 -43 14
-43 -27 0 -140 45 -191 76 -62 37 -142 117 -184 183 -91 145 -98 361 -17 524
45 91 144 192 227 234 124 63 276 74 420 31z m2102 -25 c1 -12 -6 -18 -23 -19
l-24 -2 23 19 c12 10 22 18 22 19 1 0 1 -8 2 -17z m-117 -103 c0 -5 -2 -10 -4
-10 -3 0 -8 5 -11 10 -3 6 -1 10 4 10 6 0 11 -4 11 -10z m-1382 -106 c70 -23
140 -79 176 -143 89 -160 -23 -369 -210 -388 -68 -7 -125 9 -194 55 -92 62
-141 189 -110 288 48 155 192 235 338 188z m-1586 -6 c9 -7 18 -35 22 -62 5
-43 4 -47 -12 -41 -72 28 -113 17 -174 -46 -52 -53 -83 -62 -112 -30 -23 25
-13 59 30 109 46 54 105 82 175 82 30 0 62 -6 71 -12z m2618 -204 c0 -2 -7 -4
-15 -4 -8 0 -15 4 -15 10 0 5 7 7 15 4 8 -4 15 -8 15 -10z m-2617 -96 c9 -8
19 -35 23 -64 l6 -52 -39 11 c-62 16 -108 2 -156 -49 -23 -24 -50 -44 -60 -44
-35 0 -57 19 -57 51 0 37 68 114 125 140 46 21 134 25 158 7z m2463 -18 c16
-13 17 -13 12 1 -5 13 -2 16 13 12 19 -5 19 -7 -5 -23 -15 -9 -23 -20 -19 -25
5 -4 0 -5 -10 -2 -10 4 -23 7 -28 7 -6 0 -7 5 -3 11 4 7 -2 9 -17 7 -13 -2
-23 -9 -21 -16 1 -8 -2 -11 -8 -7 -6 4 -17 1 -25 -5 -10 -8 -15 -9 -15 -2 0
12 79 59 96 57 7 0 20 -7 30 -15z m-3234 -17 c37 -33 7 -113 -43 -113 -27 0
-69 39 -69 66 0 53 72 84 112 47z m230 -50 c26 -23 23 -59 -7 -79 -23 -15 -27
-15 -50 0 -27 18 -34 63 -13 84 17 17 48 15 70 -5z m2879 -2 c-8 -5 -21 -6
-30 -3 -14 5 -14 4 -2 -12 8 -9 10 -16 5 -15 -15 4 -64 -23 -58 -32 3 -5 1 -9
-3 -9 -5 0 -14 9 -21 21 -8 12 -9 18 -3 14 6 -3 11 -2 11 4 0 6 10 15 23 21
21 11 21 10 3 -4 -11 -9 -17 -19 -13 -22 9 -9 37 15 37 32 0 9 11 14 33 14 22
0 28 -3 18 -9z m-219 -107 c-7 -12 -11 -13 -17 -4 -4 7 -2 16 6 21 18 11 23 4
11 -17z m52 -24 c-6 -6 -10 -2 -11 12 -2 16 1 18 10 9 7 -7 8 -14 1 -21z
m-114 1 c0 -5 -7 -12 -16 -15 -14 -5 -15 -4 -4 9 14 17 20 19 20 6z m-2107
-73 c50 -26 60 -69 26 -112 -32 -41 -109 -34 -129 13 -14 34 -1 72 32 95 27
19 42 20 71 4z m1800 -57 c-5 -3 -15 -15 -21 -26 -8 -16 -7 -24 5 -37 20 -22
10 -24 -11 -2 -12 11 -13 20 -6 34 7 13 7 21 -2 26 -6 4 -8 3 -4 -4 3 -6 2
-13 -4 -17 -6 -3 -10 3 -10 15 0 17 4 20 20 15 12 -4 20 -2 20 5 0 6 5 8 11 4
7 -4 7 -9 2 -13z m101 4 c-7 -17 -20 -20 -28 -6 -4 5 0 12 6 14 23 9 28 7 22
-8z m-300 -87 c-3 -5 -12 -7 -19 -4 -7 2 -18 -1 -24 -7 -6 -6 -11 -7 -11 -1 0
18 21 32 41 27 10 -3 16 -10 13 -15z m-1914 -18 c0 -5 -4 -10 -10 -10 -5 0
-10 5 -10 10 0 6 5 10 10 10 6 0 10 -4 10 -10z m1313 -116 c-4 -10 -10 -8 -25
6 -12 11 -25 17 -30 14 -9 -6 -11 10 -2 19 11 11 63 -25 57 -39z m-233 19 c0
-4 -16 -8 -35 -9 -46 -1 -46 11 0 14 19 2 35 -1 35 -5z"/>
<path d="M8062 6320 c-122 -75 -77 -250 65 -250 54 0 101 32 125 86 30 69 4
134 -66 168 -45 21 -84 20 -124 -4z"/>
<path d="M8335 5752 c-39 -24 -51 -40 -62 -82 -14 -52 0 -100 41 -137 31 -28
43 -33 87 -33 46 0 55 4 90 39 48 48 55 105 21 165 -35 59 -120 82 -177 48z
m105 -72 c39 -39 14 -100 -41 -100 -29 0 -59 31 -59 61 0 19 45 59 66 59 8 0
23 -9 34 -20z"/>
<path d="M2978 4333 c7 -3 16 -2 19 1 4 3 -2 6 -13 5 -11 0 -14 -3 -6 -6z"/>
<path d="M2970 4162 c0 -32 23 -61 35 -42 3 5 3 10 -1 10 -4 0 0 8 10 19 15
16 15 19 1 31 -13 10 -15 9 -15 -9 0 -11 -5 -21 -11 -21 -6 0 -9 7 -6 15 4 8
2 17 -3 20 -6 4 -10 -7 -10 -23z"/>
<path d="M3015 4140 c-3 -5 -1 -10 4 -10 6 0 11 5 11 10 0 6 -2 10 -4 10 -3 0
-8 -4 -11 -10z"/>
<path d="M8495 5040 c-3 -5 -1 -10 4 -10 6 0 11 5 11 10 0 6 -2 10 -4 10 -3 0
-8 -4 -11 -10z"/>
<path d="M8455 4980 c3 -5 11 -10 16 -10 6 0 7 5 4 10 -3 6 -11 10 -16 10 -6
0 -7 -4 -4 -10z"/>
<path d="M4530 8553 c-51 -20 -72 -80 -46 -131 31 -59 87 -69 138 -23 41 37
44 89 8 126 -26 25 -73 39 -100 28z"/>
<path d="M3737 8337 c-89 -28 -150 -112 -151 -207 -1 -30 3 -67 7 -83 10 -38
72 -104 121 -129 93 -48 220 -16 281 71 26 37 30 53 33 120 3 64 0 85 -17 118
-50 99 -163 144 -274 110z m14 -77 c28 -15 24 -44 -12 -85 -33 -37 -75 -47
-85 -20 -9 22 15 72 44 95 29 23 28 23 53 10z"/>
<path d="M6980 7885 c0 -229 5 -252 62 -281 55 -29 126 -2 161 61 6 11 14 79
17 150 l5 130 -107 73 c-59 39 -114 72 -123 72 -13 0 -15 -28 -15 -205z"/>
<path d="M3135 7984 c-22 -19 -74 -57 -116 -85 l-77 -51 10 -36 c14 -51 51
-120 85 -161 36 -43 56 -38 106 27 47 62 67 120 68 196 1 58 -17 146 -30 146
-3 -1 -24 -16 -46 -36z"/>
<path d="M7528 7698 c11 -14 6 -19 -34 -43 -62 -37 -87 -90 -73 -157 14 -65
54 -98 118 -98 35 0 58 7 85 25 20 14 41 25 47 25 6 0 7 4 4 10 -3 5 3 15 14
21 10 7 17 19 13 27 -4 11 0 13 19 7 18 -6 11 5 -31 50 -52 54 -189 167 -162
133z"/>
<path d="M2782 7593 c3 -68 12 -115 27 -155 47 -121 186 -226 288 -216 63 6
113 31 173 85 79 71 120 184 120 331 l0 54 -32 -7 c-101 -21 -190 -92 -238
-188 -16 -33 -30 -76 -30 -96 0 -65 -17 -66 -23 -2 -6 75 -36 137 -88 190 -41
40 -118 83 -173 96 l-28 6 4 -98z"/>
<path d="M7010 7499 c-74 -13 -144 -51 -206 -111 -238 -232 -105 -636 226
-688 287 -44 512 206 449 499 -15 69 -77 168 -137 217 -87 72 -213 103 -332
83z m195 -188 c120 -69 158 -219 85 -334 -100 -159 -324 -147 -412 22 -49 93
-33 193 43 270 77 77 193 94 284 42z"/>
<path d="M7028 7204 c-31 -16 -58 -61 -58 -94 0 -36 28 -85 59 -103 81 -48
181 10 181 104 0 23 -10 41 -39 70 -32 32 -45 39 -77 39 -22 -1 -51 -7 -66
-16z"/>
<path d="M7740 7496 c0 -2 7 -9 15 -16 13 -11 14 -10 9 4 -5 14 -24 23 -24 12z"/>
<path d="M7820 7415 c19 -19 36 -35 39 -35 3 0 -10 16 -29 35 -19 19 -36 35
-39 35 -3 0 10 -16 29 -35z"/>
<path d="M7890 7336 c0 -2 8 -10 18 -17 15 -13 16 -12 3 4 -13 16 -21 21 -21
13z"/>
<path d="M7718 7243 c23 -2 61 -2 85 0 23 2 4 4 -43 4 -47 0 -66 -2 -42 -4z"/>
<path d="M2505 6860 c-159 -35 -283 -131 -353 -272 -95 -192 -60 -392 95 -547
149 -148 349 -194 532 -121 332 130 424 554 175 803 -57 56 -113 91 -192 118
-65 23 -197 32 -257 19z m212 -260 c100 -50 150 -140 139 -248 -7 -63 -26
-104 -70 -150 -53 -57 -101 -77 -186 -77 -85 0 -133 20 -187 77 -101 105 -94
262 17 361 56 50 93 65 171 66 43 1 69 -6 116 -29z"/>
<path d="M1883 6513 c-84 -176 -190 -462 -177 -476 2 -2 30 3 62 11 73 19 178
4 235 -34 21 -14 42 -24 47 -22 5 2 -6 27 -25 57 -42 66 -71 150 -86 251 -14
90 -8 158 24 267 20 68 21 83 10 88 -8 3 -16 5 -17 5 -2 0 -35 -66 -73 -147z"/>
<path d="M8790 5055 c0 -9 6 -12 15 -9 8 4 15 7 15 9 0 2 -7 5 -15 9 -9 3 -15
0 -15 -9z"/>
<path d="M8825 5031 c-3 -5 -2 -12 3 -15 5 -3 9 1 9 9 0 17 -3 19 -12 6z"/>
<path d="M8860 4999 c0 -5 5 -7 10 -4 6 3 10 8 10 11 0 2 -4 4 -10 4 -5 0 -10
-5 -10 -11z"/>
<path d="M8791 4954 c0 -11 3 -14 6 -6 3 7 2 16 -1 19 -3 4 -6 -2 -5 -13z"/>
<path d="M8820 4890 c0 -5 5 -10 11 -10 5 0 7 5 4 10 -3 6 -8 10 -11 10 -2 0
-4 -4 -4 -10z"/>
<path d="M8781 4716 c-9 -11 -9 -16 1 -22 7 -4 10 -4 6 1 -4 4 -3 14 3 22 6 7
9 13 6 13 -2 0 -10 -6 -16 -14z"/>
<path d="M8790 4636 c0 -2 7 -7 16 -10 8 -3 12 -2 9 4 -6 10 -25 14 -25 6z"/>
<path d="M8773 4609 c-2 -23 3 -25 10 -4 4 8 3 16 -1 19 -4 3 -9 -4 -9 -15z"/>
<path d="M8760 4471 c0 -6 4 -13 10 -16 6 -3 7 1 4 9 -7 18 -14 21 -14 7z"/>
<path d="M8742 4440 c0 -14 2 -19 5 -12 2 6 2 18 0 25 -3 6 -5 1 -5 -13z"/>
<path d="M8761 4312 c-1 -8 -6 -10 -13 -6 -10 5 -10 4 -1 -6 15 -16 28 -8 20
12 -4 11 -6 11 -6 0z"/>
<path d="M8847 4289 c7 -7 15 -10 18 -7 3 3 -2 9 -12 12 -14 6 -15 5 -6 -5z"/>
<path d="M8715 4194 c-14 -15 -25 -32 -25 -37 0 -7 3 -7 8 -1 4 5 18 21 31 37
31 35 18 36 -14 1z"/>
<path d="M8731 4172 c-7 -13 -6 -23 1 -30 15 -15 28 -15 28 -1 0 5 -5 7 -11 3
-8 -5 -10 1 -7 20 6 31 3 33 -11 8z"/>
<path d="M8680 4134 c0 -2 10 -8 21 -15 17 -8 20 -8 17 2 -4 11 -38 23 -38 13z"/>
<path d="M8730 4109 c0 -5 5 -7 10 -4 6 3 10 8 10 11 0 2 -4 4 -10 4 -5 0 -10
-5 -10 -11z"/>
<path d="M8690 4100 c0 -5 7 -10 16 -10 8 0 12 5 9 10 -3 6 -10 10 -16 10 -5
0 -9 -4 -9 -10z"/>
<path d="M8750 4096 c0 -2 8 -10 18 -17 15 -13 16 -12 3 4 -13 16 -21 21 -21
13z"/>
<path d="M8705 4070 c4 -6 11 -8 16 -5 14 9 11 15 -7 15 -8 0 -12 -5 -9 -10z"/>
<path d="M8653 4050 c2 -8 12 -14 21 -13 12 1 16 -4 11 -15 -4 -12 -3 -14 5
-6 6 6 8 19 4 28 -5 14 -9 15 -15 4 -7 -11 -11 -10 -20 2 -9 13 -10 13 -6 0z"/>
<path d="M8757 4043 c-9 -9 -9 -51 1 -56 4 -3 7 10 7 29 0 19 0 34 -1 34 0 0
-4 -3 -7 -7z"/>
<path d="M8719 3984 c9 -12 18 -20 20 -18 2 2 -1 10 -8 18 -9 11 -9 15 1 19 7
3 3 4 -8 4 -21 -1 -21 -2 -5 -23z"/>
<path d="M8763 3951 c0 -11 5 -18 9 -15 4 3 5 11 1 19 -7 21 -12 19 -10 -4z"/>
<path d="M8687 3945 c-8 -8 -18 -11 -22 -7 -5 4 -5 1 -1 -6 6 -11 12 -10 27 4
10 9 19 19 19 21 0 7 -9 2 -23 -12z"/>
<path d="M8647 3903 c-10 -9 -9 -23 1 -23 5 0 9 7 9 15 0 17 -1 18 -10 8z"/>
<path d="M8685 3890 c-17 -8 -17 -9 7 -7 15 1 24 5 22 9 -3 4 -6 8 -7 7 -1 0
-11 -4 -22 -9z"/>
<path d="M8635 3860 c-3 -5 -1 -10 4 -10 6 0 11 5 11 10 0 6 -2 10 -4 10 -3 0
-8 -4 -11 -10z"/>
<path d="M8596 3787 c3 -10 9 -15 12 -12 3 3 0 11 -7 18 -10 9 -11 8 -5 -6z"/>
<path d="M8638 3779 c-10 -5 -18 -15 -18 -20 0 -6 7 -3 16 5 8 9 20 13 26 10
7 -4 8 -2 4 4 -8 14 -7 14 -28 1z"/>
<path d="M8575 3750 c-3 -5 -1 -10 4 -10 6 0 11 5 11 10 0 6 -2 10 -4 10 -3 0
-8 -4 -11 -10z"/>
<path d="M8648 3733 c7 -3 16 -2 19 1 4 3 -2 6 -13 5 -11 0 -14 -3 -6 -6z"/>
<path d="M8616 3715 c-9 -26 -7 -32 5 -12 6 10 9 21 6 23 -2 3 -7 -2 -11 -11z"/>
<path d="M8550 3690 c0 -5 5 -10 10 -10 6 0 10 5 10 10 0 6 -4 10 -10 10 -5 0
-10 -4 -10 -10z"/>
<path d="M8580 3686 c0 -2 7 -7 16 -10 8 -3 12 -2 9 4 -6 10 -25 14 -25 6z"/>
<path d="M8621 3637 c2 -1 13 -9 24 -17 19 -14 19 -14 6 3 -7 9 -18 17 -24 17
-6 0 -8 -1 -6 -3z"/>
<path d="M8511 3481 c-8 -6 -9 -11 -3 -15 6 -3 14 -1 17 5 9 14 2 20 -14 10z"/>
<path d="M8490 3439 c0 -5 5 -7 10 -4 6 3 10 8 10 11 0 2 -4 4 -10 4 -5 0 -10
-5 -10 -11z"/>
<path d="M8521 3424 c0 -11 3 -14 6 -6 3 7 2 16 -1 19 -3 4 -6 -2 -5 -13z"/>
<path d="M8466 3422 c-3 -5 1 -9 9 -9 8 0 12 4 9 9 -3 4 -7 8 -9 8 -2 0 -6 -4
-9 -8z"/>
<path d="M8541 3404 c0 -11 3 -14 6 -6 3 7 2 16 -1 19 -3 4 -6 -2 -5 -13z"/>
<path d="M8508 3363 c7 -3 16 -2 19 1 4 3 -2 6 -13 5 -11 0 -14 -3 -6 -6z"/>
<path d="M8450 3315 c-7 -9 -8 -15 -2 -15 5 0 12 7 16 15 3 8 4 15 2 15 -2 0
-9 -7 -16 -15z"/>
<path d="M8397 3306 c-10 -25 -9 -38 3 -31 6 4 8 12 4 18 -3 7 2 3 10 -7 13
-16 18 -17 29 -7 8 9 9 12 0 9 -6 -2 -18 6 -26 16 -13 17 -14 18 -20 2z"/>
<path d="M8338 3271 c-32 -30 -35 -41 -11 -41 9 0 13 -3 10 -7 -4 -3 -2 -12 4
-20 9 -10 7 -13 -9 -13 -12 0 -19 -6 -18 -15 1 -9 5 -15 9 -15 43 1 43 1 22 9
-19 8 -19 8 4 16 21 6 22 9 7 17 -9 5 -14 14 -10 20 4 7 10 5 16 -3 8 -11 9
-11 5 1 -2 8 -9 14 -14 13 -5 -1 -10 7 -10 18 -2 17 8 24 30 20 4 0 7 3 7 8 0
21 -16 17 -42 -8z"/>
<path d="M8355 3260 c-4 -6 1 -10 9 -10 14 0 20 -12 17 -32 0 -5 4 -8 9 -8 6
0 10 -6 10 -13 0 -8 11 -19 23 -24 18 -9 24 -8 24 2 0 7 -6 11 -14 8 -9 -3
-20 9 -31 36 -17 41 -37 58 -47 41z"/>
<path d="M8280 3185 c-7 -8 -9 -15 -4 -15 4 0 1 -6 -7 -12 -8 -7 -12 -12 -10
-11 2 2 11 -3 19 -10 11 -8 14 -8 9 0 -4 6 -1 18 7 26 8 7 11 19 7 26 -6 9
-11 8 -21 -4z"/>
<path d="M8300 3140 c0 -5 9 -14 21 -20 11 -7 18 -18 15 -25 -3 -9 0 -12 10
-8 18 7 19 5 -16 36 -16 15 -30 23 -30 17z"/>
<path d="M8248 3125 c-7 -12 32 -50 53 -51 9 -1 16 4 16 11 0 7 -10 12 -21 11
-13 -1 -20 4 -18 12 1 8 -2 11 -7 8 -5 -4 -11 -1 -13 6 -3 7 -7 8 -10 3z"/>
<path d="M8220 3088 c0 -4 4 -8 9 -8 6 0 12 4 15 8 3 5 -1 9 -9 9 -8 0 -15 -4
-15 -9z"/>
<path d="M8375 3090 c-3 -6 1 -7 9 -4 18 7 21 14 7 14 -6 0 -13 -4 -16 -10z"/>
<path d="M8250 3064 c0 -8 5 -12 10 -9 6 3 10 10 10 16 0 5 -4 9 -10 9 -5 0
-10 -7 -10 -16z"/>
<path d="M8271 3046 c-9 -11 -9 -16 1 -22 7 -4 10 -4 6 1 -4 4 0 14 10 21 9 7
12 14 6 14 -6 0 -17 -6 -23 -14z"/>
<path d="M8176 3028 c-9 -12 -16 -27 -16 -33 0 -5 4 -4 9 4 5 7 14 10 20 6 9
-5 9 -10 0 -21 -8 -10 -8 -14 0 -14 6 0 11 5 11 10 0 6 5 10 11 10 5 0 7 -5 3
-11 -3 -6 5 -3 20 6 30 20 35 31 7 16 -14 -8 -20 -7 -25 4 -3 8 0 17 6 21 7 4
6 9 -3 15 -21 13 -26 11 -43 -13z m34 4 c0 -5 -7 -9 -15 -9 -8 0 -12 4 -9 9 3
4 9 8 15 8 5 0 9 -4 9 -8z"/>
<path d="M8284 2996 c4 -27 17 -37 32 -25 10 8 12 15 5 22 -15 15 -39 17 -37
3z m30 -17 c-3 -5 -10 -7 -15 -3 -5 3 -7 10 -3 15 3 5 10 7 15 3 5 -3 7 -10 3
-15z"/>
<path d="M8134 2968 c-4 -13 -7 -26 -6 -30 1 -5 -5 -8 -13 -8 -9 0 -12 -6 -8
-15 3 -10 1 -15 -7 -13 -7 2 -15 -4 -17 -12 -4 -12 -3 -12 5 -2 7 11 11 8 16
-12 4 -16 11 -24 17 -20 8 4 7 9 -2 15 -11 7 -11 9 1 9 13 0 13 1 0 10 -12 8
-12 10 5 10 17 0 17 2 5 10 -13 8 -12 10 4 10 16 0 17 2 5 17 -12 14 -12 16 1
11 11 -4 16 0 17 13 2 28 -14 33 -23 7z"/>
<path d="M8240 2965 c-7 -8 -9 -15 -6 -15 4 0 14 7 22 15 9 8 11 15 6 15 -5 0
-15 -7 -22 -15z"/>
<path d="M8192 2949 c2 -7 12 -13 21 -15 23 -3 21 3 -4 17 -17 8 -20 8 -17 -2z"/>
<path d="M8260 2947 c-17 -14 -26 -42 -10 -32 9 6 34 45 28 45 -2 0 -10 -6
-18 -13z"/>
<path d="M8165 2931 c-3 -6 -1 -11 5 -11 6 0 8 -4 5 -10 -3 -6 1 -7 10 -3 9 3
13 9 8 12 -4 3 -11 10 -14 14 -4 5 -10 4 -14 -2z"/>
<path d="M8295 2929 c-4 -6 -5 -12 -2 -15 2 -3 7 2 10 11 7 17 1 20 -8 4z"/>
<path d="M8226 2897 c3 -10 9 -15 12 -12 3 3 0 11 -7 18 -10 9 -11 8 -5 -6z"/>
<path d="M8080 2860 c0 -5 5 -10 11 -10 5 0 7 5 4 10 -3 6 -8 10 -11 10 -2 0
-4 -4 -4 -10z"/>
<path d="M8288 2863 c7 -3 16 -2 19 1 4 3 -2 6 -13 5 -11 0 -14 -3 -6 -6z"/>
<path d="M8045 2850 c-3 -5 -1 -10 4 -10 6 0 11 5 11 10 0 6 -2 10 -4 10 -3 0
-8 -4 -11 -10z"/>
<path d="M8170 2835 c-7 -9 -11 -17 -8 -20 2 -2 12 4 21 15 9 11 13 20 8 20
-5 0 -14 -7 -21 -15z"/>
<path d="M8068 2833 c-20 -5 -23 -18 -8 -28 6 -3 13 0 15 8 4 9 18 12 42 10
20 -1 33 0 30 3 -7 7 -59 12 -79 7z"/>
<path d="M8023 2823 c-7 -3 -13 -16 -13 -29 0 -13 -5 -24 -11 -24 -5 0 -7 6
-3 13 6 9 5 9 -7 0 -19 -16 -55 -78 -39 -68 8 5 11 3 8 -6 -3 -8 -11 -13 -17
-11 -6 1 -11 -2 -11 -8 0 -14 19 -12 35 3 9 10 10 18 3 32 -9 15 -8 17 6 12
10 -4 16 -1 16 8 0 8 5 15 10 15 14 0 12 -24 -2 -39 -11 -10 -10 -11 2 -6 9 3
21 15 28 26 8 12 9 18 3 15 -5 -4 -12 -2 -16 4 -3 5 -2 10 3 10 5 0 12 12 15
28 6 31 6 31 -10 25z"/>
<path d="M8130 2800 c0 -5 5 -10 10 -10 6 0 10 5 10 10 0 6 -4 10 -10 10 -5 0
-10 -4 -10 -10z"/>
<path d="M8075 2779 c-5 -15 -2 -25 9 -31 9 -5 13 -14 10 -20 -4 -7 -2 -8 4
-4 13 8 5 36 -10 36 -5 0 -6 9 -3 20 3 11 4 20 1 20 -2 0 -8 -10 -11 -21z"/>
<path d="M8250 2790 c-9 -6 -10 -10 -3 -10 6 0 15 5 18 10 8 12 4 12 -15 0z"/>
<path d="M8045 2780 c3 -5 8 -10 11 -10 2 0 4 5 4 10 0 6 -5 10 -11 10 -5 0
-7 -4 -4 -10z"/>
<path d="M8155 2780 c-3 -6 1 -7 9 -4 18 7 21 14 7 14 -6 0 -13 -4 -16 -10z"/>
<path d="M8106 2768 c3 -4 9 -8 15 -8 5 0 9 4 9 8 0 5 -7 9 -15 9 -8 0 -12 -4
-9 -9z"/>
<path d="M8049 2739 c-3 -7 2 -21 11 -30 16 -15 18 -15 18 7 0 13 -4 21 -8 19
-5 -3 -10 0 -12 7 -3 8 -6 7 -9 -3z"/>
<path d="M8027 2697 c-3 -7 3 -13 14 -13 22 0 25 12 5 19 -8 3 -16 0 -19 -6z"/>
<path d="M7978 2673 c7 -3 16 -2 19 1 4 3 -2 6 -13 5 -11 0 -14 -3 -6 -6z"/>
<path d="M7942 2658 c-7 -7 -12 -16 -12 -21 0 -5 7 -1 16 8 9 9 14 18 12 20
-2 3 -10 -1 -16 -7z"/>
<path d="M7882 2640 c-7 -11 -8 -20 -3 -20 9 0 24 30 18 36 -1 2 -8 -6 -15
-16z"/>
<path d="M8066 2647 c3 -10 9 -15 12 -12 3 3 0 11 -7 18 -10 9 -11 8 -5 -6z"/>
<path d="M7950 2631 c0 -5 6 -14 14 -20 12 -10 13 -8 9 8 -5 21 -23 30 -23 12z"/>
<path d="M7996 2623 c-6 -14 -5 -15 5 -6 7 7 10 15 7 18 -3 3 -9 -2 -12 -12z"/>
<path d="M8023 2614 c-13 -14 -18 -24 -11 -22 10 4 45 48 37 48 -2 0 -14 -12
-26 -26z"/>
<path d="M7910 2610 c0 -14 15 -19 29 -11 9 6 7 10 -8 14 -12 3 -21 1 -21 -3z"/>
<path d="M8079 2607 c6 -8 7 -18 3 -22 -4 -5 -1 -5 6 -1 10 6 10 11 1 22 -6 8
-14 14 -16 14 -3 0 0 -6 6 -13z"/>
<path d="M7894 2558 c-4 -7 -3 -10 1 -5 5 4 16 0 26 -9 14 -12 18 -13 25 -2 4
7 3 10 -1 5 -5 -4 -16 0 -26 9 -14 12 -18 13 -25 2z"/>
<path d="M7860 2521 c0 -5 5 -13 10 -16 6 -3 10 -2 10 4 0 5 -4 13 -10 16 -5
3 -10 2 -10 -4z"/>
<path d="M7794 2485 c5 -32 22 -36 45 -9 18 21 19 26 6 21 -9 -4 -19 -7 -21
-7 -3 0 -2 -4 1 -10 3 -5 1 -10 -4 -10 -6 0 -11 7 -11 15 0 8 -4 15 -9 15 -5
0 -8 -7 -7 -15z"/>
<path d="M7891 2474 c0 -11 3 -14 6 -6 3 7 2 16 -1 19 -3 4 -6 -2 -5 -13z"/>
<path d="M7853 2465 c0 -8 4 -15 9 -15 4 0 8 4 8 9 0 6 -4 12 -8 15 -5 3 -9
-1 -9 -9z"/>
<path d="M2650 2452 c0 -4 28 -36 63 -70 l63 -62 425 0 c428 0 455 2 443 35
-4 8 9 16 33 22 29 7 39 14 41 33 8 50 7 50 -550 50 -285 0 -518 -4 -518 -8z"/>
<path d="M7787 2437 c-3 -8 3 -14 16 -15 12 0 17 2 12 6 -6 4 -13 11 -16 15
-4 4 -9 2 -12 -6z"/>
<path d="M7680 2391 c0 -5 7 -11 15 -15 9 -3 15 0 15 9 0 8 -7 15 -15 15 -8 0
-15 -4 -15 -9z"/>
<path d="M7840 2365 c-7 -9 -10 -18 -6 -22 3 -3 6 -1 6 6 0 7 7 11 14 8 10 -4
13 -1 9 9 -6 18 -8 18 -23 -1z"/>
<path d="M7578 2351 c-7 -12 -17 -21 -21 -21 -17 0 -65 -54 -60 -67 4 -9 0
-11 -13 -6 -12 4 -15 3 -10 -6 5 -7 14 -10 22 -7 8 3 14 2 14 -3 0 -16 -13
-19 -32 -8 -16 10 -22 9 -32 -5 -7 -10 -19 -18 -25 -18 -19 0 -7 -23 13 -26
10 -1 25 -9 34 -16 10 -8 27 -13 40 -12 14 1 22 -4 22 -15 0 -10 3 -12 8 -5 4
6 14 14 22 17 10 3 6 6 -10 7 -14 1 -29 2 -33 1 -4 -1 -10 6 -14 16 -6 15 -7
15 -13 -1 -5 -16 -7 -16 -19 -2 -11 14 -10 17 10 25 18 6 27 4 36 -8 7 -9 12
-11 13 -4 0 6 -4 15 -10 18 -15 9 -12 25 5 25 8 0 15 4 15 10 0 5 6 7 13 5 16
-6 44 12 34 22 -5 4 -12 1 -17 -7 -7 -12 -12 -11 -29 4 -12 11 -21 14 -21 8 0
-6 5 -12 12 -14 9 -3 9 -6 0 -12 -17 -10 -28 23 -12 37 10 9 14 9 17 0 8 -23
32 -13 35 15 2 22 7 26 26 24 22 -3 23 -2 11 20 -17 32 -16 32 -31 9z m-114
-148 c-17 -18 -27 -13 -18 10 3 9 12 13 20 10 11 -4 11 -7 -2 -20z"/>
<path d="M7780 2354 c0 -13 18 -39 24 -34 2 3 -2 14 -10 24 -8 11 -14 16 -14
10z"/>
<path d="M7583 2300 c1 -11 7 -22 15 -25 7 -3 10 -9 7 -15 -3 -5 -1 -10 4 -10
14 0 14 1 -5 38 -18 37 -23 40 -21 12z"/>
<path d="M7730 2296 c0 -8 4 -17 9 -20 5 -4 7 3 4 14 -6 23 -13 26 -13 6z"/>
<path d="M7700 2281 c0 -5 5 -13 10 -16 6 -3 10 -2 10 4 0 5 -4 13 -10 16 -5
3 -10 2 -10 -4z"/>
<path d="M7663 2259 c-13 -13 -6 -39 9 -39 7 0 6 5 -1 13 -8 10 -7 17 1 25 7
7 10 12 7 12 -3 0 -10 -5 -16 -11z"/>
<path d="M7588 2235 c-4 -4 -4 -14 -1 -23 3 -13 1 -13 -11 2 -9 11 -16 15 -16
8 0 -6 -6 -10 -12 -8 -7 1 -10 1 -6 -1 4 -3 11 -5 15 -6 19 -3 31 -22 19 -30
-7 -6 -6 -7 4 -4 8 2 14 10 13 16 -2 6 6 11 16 11 24 0 36 16 20 26 -8 4 -9 3
-5 -4 4 -7 1 -12 -8 -12 -8 0 -16 7 -18 16 -2 9 -6 13 -10 9z"/>
<path d="M7377 2175 c-18 -13 -17 -14 12 -30 18 -9 29 -21 25 -26 -4 -8 -9 -7
-15 2 -5 8 -9 9 -9 3 0 -5 7 -19 15 -30 19 -26 19 -44 -2 -60 -10 -7 -15 -16
-10 -20 9 -10 36 25 37 48 0 9 -4 19 -10 23 -11 7 8 55 22 55 15 0 8 28 -9 34
-10 3 -22 8 -28 11 -5 2 -18 -2 -28 -10z m53 -15 c12 -8 11 -10 -7 -10 -12 0
-25 5 -28 10 -8 13 15 13 35 0z"/>
<path d="M7540 2179 c0 -5 5 -7 10 -4 6 3 10 8 10 11 0 2 -4 4 -10 4 -5 0 -10
-5 -10 -11z"/>
<path d="M7464 2143 c4 -8 1 -13 -9 -13 -15 0 -15 -2 1 -17 11 -11 13 -18 5
-21 -6 -2 -11 -8 -11 -14 0 -7 4 -7 13 0 14 12 15 57 2 69 -4 5 -5 2 -1 -4z"/>
<path d="M7525 2090 c3 -5 8 -10 11 -10 2 0 4 5 4 10 0 6 -5 10 -11 10 -5 0
-7 -4 -4 -10z"/>
<path d="M7368 2078 c-3 -7 -13 -13 -24 -13 -10 0 -18 -6 -16 -12 1 -7 -5 -13
-13 -13 -8 0 -15 5 -15 12 0 8 -7 5 -17 -5 -17 -17 -17 -19 1 -29 10 -6 26
-18 36 -28 10 -10 23 -14 30 -10 9 6 6 10 -9 15 -11 3 -21 10 -21 15 0 4 -10
10 -22 13 -12 4 -19 9 -15 13 3 4 18 -1 31 -10 15 -9 27 -12 31 -6 3 6 0 10
-7 10 -7 0 3 13 22 30 19 16 30 29 23 30 -6 0 -13 -6 -15 -12z"/>
<path d="M7380 2055 c-7 -8 -8 -15 -2 -15 5 0 15 7 22 15 7 8 8 15 2 15 -5 0
-15 -7 -22 -15z"/>
<path d="M7240 2050 c-12 -8 -11 -10 8 -10 12 0 22 5 22 10 0 13 -11 13 -30 0z"/>
<path d="M7185 2029 c-4 -6 0 -9 11 -7 12 2 18 -2 16 -10 -1 -8 2 -11 8 -7 5
3 10 1 10 -4 0 -6 5 -11 11 -11 5 0 7 5 3 11 -3 6 0 16 7 21 11 8 10 9 -3 4
-10 -3 -20 -1 -23 4 -8 13 -32 13 -40 -1z"/>
<path d="M7507 2029 c7 -7 15 -10 18 -7 3 3 -2 9 -12 12 -14 6 -15 5 -6 -5z"/>
<path d="M7555 2029 c-4 -6 -5 -12 -2 -15 2 -3 7 2 10 11 7 17 1 20 -8 4z"/>
<path d="M7360 2010 c-9 -6 -10 -10 -3 -10 6 0 15 5 18 10 8 12 4 12 -15 0z"/>
<path d="M7269 1981 c11 -7 9 -11 -8 -20 -22 -12 -20 -32 2 -30 8 0 8 2 -1 6
-21 8 23 34 45 27 16 -6 16 -5 -2 9 -11 9 -27 16 -35 17 -12 0 -13 -2 -1 -9z"/>
<path d="M7378 1973 c7 -3 16 -2 19 1 4 3 -2 6 -13 5 -11 0 -14 -3 -6 -6z"/>
<path d="M7120 1889 c0 -7 -10 -9 -25 -7 -14 3 -25 1 -25 -3 0 -11 41 -11 59
0 9 6 10 11 2 15 -6 4 -11 2 -11 -5z"/>
<path d="M7153 1875 c0 -8 4 -12 9 -9 5 3 6 10 3 15 -9 13 -12 11 -12 -6z"/>
<path d="M3470 1830 c20 -13 33 -13 25 0 -3 6 -14 10 -23 10 -15 0 -15 -2 -2
-10z"/>
<path d="M7066 1813 c-6 -14 -5 -15 5 -6 7 7 10 15 7 18 -3 3 -9 -2 -12 -12z"/>
<path d="M7125 1820 c-3 -6 1 -7 9 -4 18 7 21 14 7 14 -6 0 -13 -4 -16 -10z"/>
<path d="M3480 1799 c0 -5 5 -7 10 -4 6 3 10 8 10 11 0 2 -4 4 -10 4 -5 0 -10
-5 -10 -11z"/>
<path d="M3530 1799 c0 -5 5 -7 10 -4 6 3 10 8 10 11 0 2 -4 4 -10 4 -5 0 -10
-5 -10 -11z"/>
<path d="M3425 1790 c-3 -6 1 -7 9 -4 18 7 21 14 7 14 -6 0 -13 -4 -16 -10z"/>
<path d="M3505 1770 c4 -6 11 -8 16 -5 14 9 11 15 -7 15 -8 0 -12 -5 -9 -10z"/>
<path d="M6872 1755 c-7 -8 -9 -15 -4 -15 5 0 15 7 22 15 16 19 -1 19 -18 0z"/>
<path d="M3640 1746 c0 -8 4 -17 9 -20 5 -4 7 3 4 14 -6 23 -13 26 -13 6z"/>
<path d="M6966 1745 c-9 -26 -7 -32 5 -12 6 10 9 21 6 23 -2 3 -7 -2 -11 -11z"/>
<path d="M3577 1735 c-6 -15 10 -32 20 -21 4 3 1 6 -7 6 -10 0 -10 3 0 15 7 9
8 15 2 15 -5 0 -12 -7 -15 -15z"/>
<path d="M3455 1730 c-3 -5 -1 -10 4 -10 6 0 11 5 11 10 0 6 -2 10 -4 10 -3 0
-8 -4 -11 -10z"/>
<path d="M6765 1719 c6 -32 13 -34 13 -4 0 14 -4 25 -9 25 -4 0 -6 -10 -4 -21z"/>
<path d="M6890 1731 c-8 -6 -18 -7 -22 -5 -4 3 -8 0 -8 -5 0 -6 9 -11 20 -11
11 0 20 5 20 11 0 6 7 8 16 5 8 -3 12 -2 9 4 -8 12 -16 12 -35 1z"/>
<path d="M6590 1700 c-7 -17 -10 -33 -6 -37 3 -3 6 1 6 10 0 10 4 17 8 17 4 0
8 9 9 20 2 28 -3 25 -17 -10z"/>
<path d="M3666 1711 c-3 -5 1 -11 9 -14 9 -4 12 -1 8 9 -6 16 -10 17 -17 5z"/>
<path d="M6790 1714 c0 -17 17 -36 24 -26 3 5 -1 15 -9 22 -8 7 -15 9 -15 4z"/>
<path d="M3701 1683 c-1 -17 16 -25 25 -12 4 7 3 9 -4 5 -5 -3 -13 0 -15 6 -4
9 -6 10 -6 1z"/>
<path d="M3837 1679 c7 -7 15 -10 18 -7 3 3 -2 9 -12 12 -14 6 -15 5 -6 -5z"/>
<path d="M7025 1680 c-3 -5 -1 -10 4 -10 6 0 11 5 11 10 0 6 -2 10 -4 10 -3 0
-8 -4 -11 -10z"/>
<path d="M6660 1664 l-25 -15 25 7 c28 7 35 12 29 18 -2 2 -15 -2 -29 -10z"/>
<path d="M6703 1665 c0 -8 4 -15 9 -15 4 0 8 4 8 9 0 6 -4 12 -8 15 -5 3 -9
-1 -9 -9z"/>
<path d="M3645 1660 c3 -5 8 -10 11 -10 2 0 4 5 4 10 0 6 -5 10 -11 10 -5 0
-7 -4 -4 -10z"/>
<path d="M3755 1660 c-3 -5 -1 -10 4 -10 6 0 11 5 11 10 0 6 -2 10 -4 10 -3 0
-8 -4 -11 -10z"/>
<path d="M3792 1655 c2 -22 35 -30 35 -8 0 7 -5 9 -10 6 -5 -3 -13 1 -18 8 -6
10 -8 8 -7 -6z"/>
<path d="M3875 1659 c-4 -6 -5 -13 -2 -16 3 -3 2 -16 -3 -29 -6 -15 -6 -24 0
-24 6 0 10 8 11 18 0 9 2 27 3 40 3 24 0 27 -9 11z"/>
<path d="M6557 1650 c-3 -11 -2 -22 2 -24 4 -3 8 6 9 20 2 29 -4 31 -11 4z"/>
<path d="M6782 1658 c2 -6 10 -13 16 -14 7 -1 8 0 2 3 -5 2 -8 9 -4 14 3 5 0
9 -6 9 -7 0 -10 -5 -8 -12z"/>
<path d="M3917 1633 c4 -10 2 -14 -4 -10 -5 3 -10 0 -10 -8 0 -8 7 -17 15 -20
9 -3 12 0 9 9 -3 8 1 16 9 18 11 2 10 6 -5 15 -17 11 -19 10 -14 -4z"/>
<path d="M3842 1631 c2 -5 -6 -17 -17 -26 -20 -16 -20 -16 2 -5 27 13 36 27
23 35 -6 4 -9 2 -8 -4z"/>
<path d="M3686 1618 c3 -4 9 -8 15 -8 5 0 9 4 9 8 0 5 -7 9 -15 9 -8 0 -12 -4
-9 -9z"/>
<path d="M6587 1619 c7 -7 15 -10 18 -7 3 3 -2 9 -12 12 -14 6 -15 5 -6 -5z"/>
<path d="M6670 1616 c0 -2 7 -7 16 -10 8 -3 12 -2 9 4 -6 10 -25 14 -25 6z"/>
<path d="M3950 1600 c-9 -6 -10 -10 -3 -10 6 0 15 5 18 10 8 12 4 12 -15 0z"/>
<path d="M6445 1600 c-3 -5 -1 -10 4 -10 6 0 11 5 11 10 0 6 -2 10 -4 10 -3 0
-8 -4 -11 -10z"/>
<path d="M6577 1599 c7 -7 15 -10 18 -7 3 3 -2 9 -12 12 -14 6 -15 5 -6 -5z"/>
<path d="M6487 1571 c-3 -13 -1 -18 9 -14 7 2 10 11 7 19 -7 19 -10 18 -16 -5z"/>
<path d="M3805 1570 c-3 -5 -1 -10 4 -10 6 0 11 5 11 10 0 6 -2 10 -4 10 -3 0
-8 -4 -11 -10z"/>
<path d="M3838 1573 c7 -3 16 -2 19 1 4 3 -2 6 -13 5 -11 0 -14 -3 -6 -6z"/>
<path d="M3890 1570 c-9 -6 -10 -10 -3 -10 6 0 15 5 18 10 8 12 4 12 -15 0z"/>
<path d="M6333 1565 c0 -8 4 -12 9 -9 4 3 8 0 8 -7 0 -7 2 -10 5 -7 7 7 -5 38
-14 38 -4 0 -8 -7 -8 -15z"/>
<path d="M3977 1559 c7 -9 10 -19 6 -23 -4 -4 1 -4 10 0 10 3 17 7 15 8 -2 1
-12 8 -23 16 -18 14 -19 13 -8 -1z"/>
<path d="M4051 1535 c37 -40 36 -40 36 -20 0 8 -4 12 -8 9 -5 -2 -16 7 -25 21
-9 14 -20 25 -25 25 -5 0 5 -16 22 -35z"/>
<path d="M4066 1555 c4 -8 10 -15 15 -15 4 0 6 7 3 15 -4 8 -10 15 -15 15 -4
0 -6 -7 -3 -15z"/>
<path d="M4125 1540 c4 -14 2 -19 -7 -17 -7 2 -9 2 -5 -1 4 -2 2 -10 -4 -18
-9 -12 -9 -18 0 -27 10 -9 11 -8 6 4 -4 11 1 22 14 31 12 8 18 18 13 22 -4 5
2 6 12 4 11 -1 21 4 23 12 3 11 2 11 -4 3 -6 -8 -14 -9 -23 -3 -24 15 -32 12
-25 -10z"/>
<path d="M6528 1553 c6 -2 9 -10 6 -15 -4 -7 -2 -8 5 -4 13 9 5 26 -12 25 -9
0 -8 -2 1 -6z"/>
<path d="M6110 1540 c-9 -6 -10 -10 -3 -10 6 0 15 5 18 10 8 12 4 12 -15 0z"/>
<path d="M4195 1531 c3 -5 -2 -17 -11 -25 -8 -9 -11 -16 -5 -16 6 0 15 9 21
19 13 25 13 31 -1 31 -5 0 -8 -4 -4 -9z"/>
<path d="M6270 1519 c0 -5 5 -7 10 -4 6 3 10 8 10 11 0 2 -4 4 -10 4 -5 0 -10
-5 -10 -11z"/>
<path d="M4250 1513 c8 -3 22 -11 30 -17 13 -10 13 -9 1 7 -7 9 -21 17 -30 16
-13 0 -14 -1 -1 -6z"/>
<path d="M4310 1500 c-8 -5 -10 -10 -5 -10 6 0 17 5 25 10 8 5 11 10 5 10 -5
0 -17 -5 -25 -10z"/>
<path d="M5935 1490 c-4 -11 -11 -18 -16 -15 -5 3 -6 -1 -3 -9 3 -9 10 -16 16
-16 5 0 6 5 3 10 -3 6 2 10 12 11 10 0 13 3 6 5 -7 3 -9 12 -6 20 3 8 3 14 0
14 -3 0 -9 -9 -12 -20z"/>
<path d="M4205 1490 c-3 -6 1 -7 9 -4 18 7 21 14 7 14 -6 0 -13 -4 -16 -10z"/>
<path d="M6255 1490 c3 -5 8 -10 11 -10 2 0 4 5 4 10 0 6 -5 10 -11 10 -5 0
-7 -4 -4 -10z"/>
<path d="M4510 1478 c0 -11 12 -10 30 2 12 7 10 9 -8 7 -12 0 -22 -5 -22 -9z"/>
<path d="M4075 1471 c-3 -5 -2 -12 3 -15 5 -3 9 1 9 9 0 17 -3 19 -12 6z"/>
<path d="M4565 1470 c-11 -5 -16 -9 -11 -9 5 -1 4 -7 -1 -13 -12 -15 -13 -49
-2 -42 4 2 9 -2 12 -8 4 -10 7 -11 18 0 11 10 10 12 -5 12 -10 0 -14 4 -10 12
4 7 3 8 -4 4 -17 -10 -15 3 2 20 11 11 16 11 19 1 3 -6 4 -2 4 11 -1 12 -1 22
-2 21 0 0 -9 -4 -20 -9z"/>
<path d="M5825 1470 c-3 -5 -1 -10 4 -10 6 0 11 5 11 10 0 6 -2 10 -4 10 -3 0
-8 -4 -11 -10z"/>
<path d="M4250 1460 c-9 -6 -10 -10 -3 -10 6 0 15 5 18 10 8 12 4 12 -15 0z"/>
<path d="M4286 1448 c13 -43 23 -68 28 -68 3 0 -2 20 -11 45 -15 45 -31 65
-17 23z"/>
<path d="M4406 1453 c-6 -14 -5 -15 5 -6 7 7 10 15 7 18 -3 3 -9 -2 -12 -12z"/>
<path d="M4485 1460 c-3 -5 -1 -10 4 -10 6 0 11 5 11 10 0 6 -2 10 -4 10 -3 0
-8 -4 -11 -10z"/>
<path d="M5855 1453 c-3 -10 -1 -13 9 -10 7 3 23 -1 35 -9 15 -11 19 -12 16
-2 -3 7 -16 18 -30 24 -19 9 -25 9 -30 -3z"/>
<path d="M4336 1452 c-3 -5 1 -9 9 -9 8 0 12 4 9 9 -3 4 -7 8 -9 8 -2 0 -6 -4
-9 -8z"/>
<path d="M4766 1446 c3 -9 11 -16 16 -16 6 0 16 -6 22 -14 9 -12 14 -11 31 6
16 17 17 20 3 15 -9 -3 -19 -1 -22 6 -3 9 -5 9 -5 -1 -1 -9 -8 -8 -26 4 -23
15 -25 15 -19 0z"/>
<path d="M5980 1456 c0 -2 9 -6 20 -9 11 -3 18 -1 14 4 -5 9 -34 13 -34 5z"/>
<path d="M6058 1439 c24 -22 40 -26 23 -6 -6 8 -9 16 -6 18 2 3 -5 6 -17 6
l-21 2 21 -20z"/>
<path d="M6090 1456 c0 -2 7 -6 15 -10 8 -3 15 -1 15 4 0 6 -7 10 -15 10 -8 0
-15 -2 -15 -4z"/>
<path d="M4630 1439 c0 -5 5 -7 10 -4 6 3 10 8 10 11 0 2 -4 4 -10 4 -5 0 -10
-5 -10 -11z"/>
<path d="M5464 1438 c-4 -7 -3 -10 1 -5 5 4 19 0 31 -8 17 -11 24 -12 27 -2 3
7 6 6 6 -4 1 -9 8 -22 16 -29 8 -7 12 -17 8 -23 -3 -6 -1 -7 5 -3 12 7 5 36
-9 36 -5 0 -9 6 -9 14 0 7 -7 19 -15 26 -11 9 -15 9 -15 1 0 -8 -5 -9 -19 -1
-15 7 -22 7 -27 -2z"/>
<path d="M5961 1434 c0 -11 3 -14 6 -6 3 7 2 16 -1 19 -3 4 -6 -2 -5 -13z"/>
<path d="M4493 1412 c0 -14 2 -21 5 -15 4 5 13 12 20 14 8 3 7 7 -5 15 -15 9
-18 7 -20 -14z"/>
<path d="M5059 1423 c-13 -16 -12 -17 4 -4 9 7 17 15 17 17 0 8 -8 3 -21 -13z"/>
<path d="M6250 1430 c-9 -6 -10 -10 -3 -10 6 0 15 5 18 10 8 12 4 12 -15 0z"/>
<path d="M4605 1416 c17 -8 32 -12 34 -10 7 6 -2 11 -34 17 l-30 6 30 -13z"/>
<path d="M4867 1423 c7 -2 9 -12 6 -21 -4 -13 -3 -14 5 -3 5 7 15 17 22 21 7
4 1 7 -16 7 -16 0 -24 -2 -17 -4z"/>
<path d="M5230 1409 c7 -11 14 -19 16 -16 7 7 -7 37 -17 37 -6 0 -5 -9 1 -21z"/>
<path d="M4655 1402 c-3 -8 -3 -17 0 -20 3 -3 5 0 5 6 0 7 5 11 11 10 6 -2 13
2 16 8 2 6 -3 11 -11 11 -8 0 -18 -7 -21 -15z"/>
<path d="M4732 1408 c2 -6 10 -13 16 -14 7 -1 8 0 2 3 -5 2 -8 9 -4 14 3 5 0
9 -6 9 -7 0 -10 -5 -8 -12z"/>
<path d="M4770 1413 c0 -6 8 -17 18 -24 16 -13 16 -13 2 6 -8 11 -16 22 -17
24 -2 2 -3 0 -3 -6z"/>
<path d="M5005 1410 c-3 -5 -1 -10 4 -10 6 0 11 5 11 10 0 6 -2 10 -4 10 -3 0
-8 -4 -11 -10z"/>
<path d="M5563 1413 c9 -2 14 -9 11 -15 -4 -7 -2 -8 5 -4 15 10 4 26 -17 25
-15 -1 -15 -2 1 -6z"/>
<path d="M5665 1410 c3 -5 8 -10 11 -10 2 0 4 5 4 10 0 6 -5 10 -11 10 -5 0
-7 -4 -4 -10z"/>
<path d="M5805 1410 c-3 -5 -1 -10 4 -10 6 0 11 5 11 10 0 6 -2 10 -4 10 -3 0
-8 -4 -11 -10z"/>
<path d="M5876 1412 c-3 -5 1 -9 9 -9 8 0 12 4 9 9 -3 4 -7 8 -9 8 -2 0 -6 -4
-9 -8z"/>
<path d="M6100 1411 c0 -6 4 -12 8 -15 5 -3 9 1 9 9 0 8 -4 15 -9 15 -4 0 -8
-4 -8 -9z"/>
<path d="M5032 1390 c0 -14 2 -19 5 -12 2 6 2 18 0 25 -3 6 -5 1 -5 -13z"/>
<path d="M5070 1400 c0 -5 5 -10 10 -10 6 0 10 5 10 10 0 6 -4 10 -10 10 -5 0
-10 -4 -10 -10z"/>
<path d="M5140 1400 c0 -5 5 -10 11 -10 5 0 7 5 4 10 -3 6 -8 10 -11 10 -2 0
-4 -4 -4 -10z"/>
<path d="M5266 1393 c-4 -9 -2 -21 4 -27 7 -7 11 -7 10 -1 -2 6 -2 16 -1 24 1
11 4 11 19 0 15 -13 16 -12 3 4 -17 21 -27 22 -35 0z"/>
<path d="M5721 1394 c0 -11 3 -14 6 -6 3 7 2 16 -1 19 -3 4 -6 -2 -5 -13z"/>
<path d="M5837 1403 c-10 -9 -9 -23 1 -23 5 0 9 7 9 15 0 17 -1 18 -10 8z"/>
<path d="M6061 1394 c0 -11 3 -14 6 -6 3 7 2 16 -1 19 -3 4 -6 -2 -5 -13z"/>
<path d="M5106 1392 c-2 -4 -1 -14 3 -21 6 -9 11 -10 15 -2 4 6 2 11 -4 11 -6
0 -8 5 -5 10 3 6 4 10 1 10 -3 0 -7 -4 -10 -8z"/>
<path d="M5170 1390 c0 -5 5 -10 11 -10 5 0 7 5 4 10 -3 6 -8 10 -11 10 -2 0
-4 -4 -4 -10z"/>
<path d="M4810 1386 c0 -2 7 -7 16 -10 8 -3 12 -2 9 4 -6 10 -25 14 -25 6z"/>
<path d="M5505 1380 c-3 -5 -1 -10 4 -10 6 0 11 5 11 10 0 6 -2 10 -4 10 -3 0
-8 -4 -11 -10z"/>
<path d="M5592 1373 c-12 -26 -9 -46 8 -50 12 -4 12 -3 2 5 -15 10 -15 18 -1
45 5 9 7 17 5 17 -3 0 -9 -8 -14 -17z"/>
<path d="M5640 1375 c0 -8 2 -15 4 -15 2 0 6 7 10 15 3 8 1 15 -4 15 -6 0 -10
-7 -10 -15z"/>
<path d="M5060 1370 c0 -5 5 -10 11 -10 5 0 7 5 4 10 -3 6 -8 10 -11 10 -2 0
-4 -4 -4 -10z"/>
<path d="M5430 1370 c0 -5 5 -10 11 -10 5 0 7 5 4 10 -3 6 -8 10 -11 10 -2 0
-4 -4 -4 -10z"/>
<path d="M5781 1364 c0 -11 3 -14 6 -6 3 7 2 16 -1 19 -3 4 -6 -2 -5 -13z"/>
<path d="M4951 1361 c-9 -6 -10 -11 -2 -15 6 -4 11 -2 11 4 0 6 5 8 10 5 6 -3
10 -1 10 4 0 13 -10 14 -29 2z"/>
<path d="M5174 1359 c-4 -7 -3 -9 4 -5 6 3 23 1 39 -5 15 -5 24 -6 18 -1 -18
17 -53 23 -61 11z"/>
<path d="M5815 1360 c-3 -5 -1 -10 4 -10 6 0 11 5 11 10 0 6 -2 10 -4 10 -3 0
-8 -4 -11 -10z"/>
<path d="M5017 1353 c-2 -4 4 -17 14 -27 22 -22 25 -10 5 17 -8 10 -16 15 -19
10z"/>
<path d="M5116 1337 c3 -10 9 -15 12 -12 3 3 0 11 -7 18 -10 9 -11 8 -5 -6z"/>
<path d="M5435 1340 c-3 -6 1 -7 9 -4 18 7 21 14 7 14 -6 0 -13 -4 -16 -10z"/>
<path d="M4935 1319 c-4 -6 -5 -12 -2 -15 2 -3 7 2 10 11 7 17 1 20 -8 4z"/>
<path d="M5285 1320 c3 -5 8 -10 11 -10 2 0 4 5 4 10 0 6 -5 10 -11 10 -5 0
-7 -4 -4 -10z"/>
<path d="M5368 1323 c7 -3 16 -2 19 1 4 3 -2 6 -13 5 -11 0 -14 -3 -6 -6z"/>
<path d="M5245 1310 c-16 -7 -17 -9 -3 -9 9 -1 20 4 23 9 7 11 7 11 -20 0z"/>
<path d="M4880 1299 c0 -5 5 -7 10 -4 6 3 10 8 10 11 0 2 -4 4 -10 4 -5 0 -10
-5 -10 -11z"/>
<path d="M5191 1294 c0 -11 3 -14 6 -6 3 7 2 16 -1 19 -3 4 -6 -2 -5 -13z"/>
<path d="M4705 1289 c-4 -6 -5 -12 -2 -15 2 -3 7 2 10 11 7 17 1 20 -8 4z"/>
<path d="M4996 1263 c-6 -14 -5 -15 5 -6 7 7 10 15 7 18 -3 3 -9 -2 -12 -12z"/>
</g>
</svg>
